<svg xmlns="http://www.w3.org/2000/svg" width="7.1mm" height="7.1mm" viewBox="0 0 20 20"><title>ico_users</title><path d="M298.2,430.7h-8.1c-1.8-.1-2.2-.7-1.5-2.4a25.6,25.6,0,0,1,2.7-4.5,2.3,2.3,0,0,1,3.5-.3c2.4,2.1,4.8,2,7.3,0s2.1-.9,3,.2a15.9,15.9,0,0,1,3,5.4c.4,1-.1,1.5-1.4,1.5Z" transform="translate(-288.3 -410.6)" fill="#ffffff"/><path d="M293,415.9a5.2,5.2,0,0,1,3-4.7,4.9,4.9,0,0,1,5.3.5,6,6,0,0,1,2.1,6c-.8,4.3-5,6.2-8.2,3.8C293.8,420.4,293,418.5,293,415.9Z" transform="translate(-288.3 -410.6)" fill="#ffffff"/></svg>