<svg xmlns="http://www.w3.org/2000/svg" width="7.1mm" height="7.1mm" viewBox="0 0 20 20"><title>ico_inventory</title><path d="M297.4,425v3.9c0,1.4-.4,1.9-1.8,1.9h-5.5c-1.4,0-1.8-.5-1.8-1.9s-.1-5.2,0-7.9.4-1.9,1.8-1.9h5.5c1.4,0,1.8.5,1.8,1.9Z" transform="translate(-288.2 -410.8)" fill="#ffffff"/><path d="M308.2,416.7c0,1.3.1,2.6,0,4s-.4,1.7-1.7,1.7h-5.7c-1.2.1-1.7-.5-1.7-1.6v-8.3c0-1.2.5-1.7,1.8-1.7h5.6c1.3,0,1.7.5,1.7,1.7S308.2,415.3,308.2,416.7Z" transform="translate(-288.2 -410.8)" fill="#ffffff"/><path d="M303.6,424.1h3a1.4,1.4,0,0,1,1.6,1.6c.1,1.2,0,2.3.1,3.4a1.5,1.5,0,0,1-1.6,1.7h-6.1a1.4,1.4,0,0,1-1.5-1.6c0-1.2-.1-2.4,0-3.5a1.4,1.4,0,0,1,1.5-1.6Z" transform="translate(-288.2 -410.8)" fill="#ffffff"/><path d="M292.8,417.4h-2.9a1.4,1.4,0,0,1-1.6-1.6,18.2,18.2,0,0,1,0-3.3c0-1.1.5-1.7,1.5-1.7h6a1.4,1.4,0,0,1,1.6,1.6v3.4a1.4,1.4,0,0,1-1.6,1.6Z" transform="translate(-288.2 -410.8)" fill="#ffffff"/></svg>