<svg xmlns="http://www.w3.org/2000/svg" width="6.4mm" height="7.1mm" viewBox="0 0 18 20.1"><title>ico_pesanan</title><path d="M298.2,430.1h-6.6c-1.6,0-2.3-.7-2.3-2.3-.1-4.5-.1-8.9,0-13.3,0-1.6.7-2.3,2.3-2.4h1.9a2.5,2.5,0,0,0,2.7-1.1,2.7,2.7,0,0,1,4.4.4,1.8,1.8,0,0,0,1.6.8h3a2,2,0,0,1,2,2.1c.1,4.6.1,9.3,0,13.9a1.9,1.9,0,0,1-2.1,2Zm0-12h4.3c.9,0,.7-.5.7-1.1s.2-1-.7-1H294c-.9,0-.7.5-.7,1s-.2,1.1.7,1.1Zm.2,2H294c-.9,0-.7.5-.7,1s-.2,1.1.7,1.1h8.5c.9,0,.7-.6.7-1.1s.2-1-.7-1Zm-1.7,6h2.7c.9,0,.9-.4.9-1s.1-1.1-.9-1.1h-5.2c-.8,0-1,.2-1,1s.2,1.1,1.1,1.1Zm1.5-12c.6,0,1-.3,1-.9a1,1,0,0,0-1.9-.1C297.2,413.7,297.6,414,298.2,414.1Z" transform="translate(-289.2 -410.1)" fill="#ffffff"/></svg>