<svg xmlns="http://www.w3.org/2000/svg" width="6.4mm" height="6.4mm" viewBox="0 0 18 18"><title>mdi_exit_to_app</title><path d="M289.2,424.2h2v3.9h14V414.2H291.3v3.9h-2c0-1.4-.1-2.9,0-4.3a1.8,1.8,0,0,1,2-1.7h13.9a1.9,1.9,0,0,1,2,2.1c.1,4.5.1,9.1,0,13.6a1.9,1.9,0,0,1-2.2,2.2H291.5a1.9,1.9,0,0,1-2.2-2.2C289.2,426.7,289.2,425.5,289.2,424.2Z" transform="translate(-289.2 -412.1)" fill="#ffffff"/><path d="M302.5,421.2l-4.8,4.9-1.3-1.6,2.9-2.3h-10v-2h9.9l-3-2.5,1.4-1.4Z" transform="translate(-289.2 -412.1)" fill="#ffffff"/></svg>